0
SECTION
2
HEADER
9
$INSUNITS
70
4
9
$ACADVER
1
AC1014
9
$HANDSEED
5
FFFF
0
ENDSEC
0
SECTION
2
TABLES
0
TABLE
2
VPORT
5
8
100
AcDbSymbolTable
0
ENDTAB
0
TABLE
2
LTYPE
5
5
100
AcDbSymbolTable
0
LTYPE
5
14
100
AcDbSymbolTableRecord
100
AcDbLinetypeTableRecord
2
BYBLOCK
70
0
0
LTYPE
5
15
100
AcDbSymbolTableRecord
100
AcDbLinetypeTableRecord
2
BYLAYER
70
0
0
LTYPE
5
16
100
AcDbSymbolTableRecord
100
AcDbLinetypeTableRecord
2
DASHED
70
0
3
Dashed __ __ __ __ __ __ __ __ __ __ __ __ __ _
72
65
73
2
40
0.75
49
0.5
74
0
49
-0.25
74
0
0
ENDTAB
0
TABLE
2
LAYER
5
2
100
AcDbSymbolTable
70
2
0
LAYER
5
50
100
AcDbSymbolTableRecord
100
AcDbLayerTableRecord
2
0
70
0
62
7
6
CONTINUOUS
0
ENDTAB
0
TABLE
2
STYLE
5
3
100
AcDbSymbolTable
70
1
0
STYLE
5
11
100
AcDbSymbolTableRecord
100
AcDbTextStyleTableRecord
2
STANDARD
70
0
0
ENDTAB
0
TABLE
2
VIEW
5
6
100
AcDbSymbolTable
70
0
0
ENDTAB
0
TABLE
2
UCS
5
7
100
AcDbSymbolTable
70
0
0
ENDTAB
0
TABLE
2
APPID
5
9
100
AcDbSymbolTable
70
2
0
APPID
5
12
100
AcDbSymbolTableRecord
100
AcDbRegAppTableRecord
2
ACAD
70
0
0
ENDTAB
0
TABLE
2
DIMSTYLE
5
A
100
AcDbSymbolTable
70
1
0
ENDTAB
0
TABLE
2
BLOCK_RECORD
5
1
100
AcDbSymbolTable
70
1
0
BLOCK_RECORD
5
1F
100
AcDbSymbolTableRecord
100
AcDbBlockTableRecord
2
*MODEL_SPACE
0
BLOCK_RECORD
5
1B
100
AcDbSymbolTableRecord
100
AcDbBlockTableRecord
2
*PAPER_SPACE
0
ENDTAB
0
ENDSEC
0
SECTION
2
BLOCKS
0
BLOCK
5
20
100
AcDbEntity
100
AcDbBlockBegin
2
*MODEL_SPACE
0
ENDBLK
5
21
100
AcDbEntity
100
AcDbBlockEnd
0
BLOCK
5
1C
100
AcDbEntity
100
AcDbBlockBegin
2
*PAPER_SPACE
0
ENDBLK
5
1D
100
AcDbEntity
100
AcDbBlockEnd
0
ENDSEC
0
SECTION
2
ENTITIES
0
CIRCLE
5
100
100
AcDbEntity
8
0
100
AcDbCircle
10
67.400000223517424
20
10.1
30
0
40
1.1000000000000032
210
0
220
-0
230
1
0
CIRCLE
5
101
100
AcDbEntity
8
0
100
AcDbCircle
10
67.400000223517424
20
27.400000000000002
30
0
40
1.0999999999999943
210
0
220
-0
230
1
0
CIRCLE
5
102
100
AcDbEntity
8
0
100
AcDbCircle
10
-7.3999997764825851
20
27.400000000000002
30
0
40
1.0999999999999999
210
0
220
-0
230
1
0
LINE
5
103
100
AcDbEntity
8
0
100
AcDbLine
10
-4.4316448145974725
20
5
30
0
11
70.000000223517418
21
5
31
0
0
LINE
5
104
100
AcDbEntity
8
0
100
AcDbLine
10
70.000000223517418
20
5
30
0
11
70.000000223517418
21
30
31
0
0
LINE
5
105
100
AcDbEntity
8
0
100
AcDbLine
10
70.000000223517418
20
30
30
0
11
-10.021814758346945
21
30
31
0
0
LINE
5
106
100
AcDbEntity
8
0
100
AcDbLine
10
-10.021814758346945
20
30
30
0
11
-10.021814758346947
21
7.5
31
0
0
SPLINE
5
107
100
AcDbEntity
8
0
100
AcDbSpline
70
0
71
3
72
14
73
10
74
0
42
0.000000001
43
0.0000000001
44
0.0000000001
40
1.4170784384076471
40
1.4170784384076471
40
1.4170784384076471
40
1.4170784384076471
40
1.5279241497390901
40
1.5279241497390901
40
1.6387698610705332
40
1.6387698610705332
40
1.8208807721336973
40
1.8208807721336973
40
2.0029916831968615
40
2.0029916831968615
40
2.0029916831968615
40
2.0029916831968615
10
-4.4316448145974725
20
5
30
0
10
-4.8011305190356159
20
5
30
0
10
-5.2021740561124465
20
5.0483529362890955
30
0
10
-5.9870064623284547
20
5.229407715494653
30
0
10
-6.3710271310048689
20
5.3611032863425407
30
0
10
-7.2727589964915058
20
5.7359032397072296
30
0
10
-7.8557576793691517
20
6.0545273159576576
30
0
10
-8.981445014524061
20
6.7629611269470127
30
0
10
-9.526171637571256
20
7.1495273882510464
30
0
10
-10.021814758346947
20
7.5
30
0
0
LINE
5
108
100
AcDbEntity
8
0
100
AcDbLine
10
-10.021814758346947
20
7.5
30
0
11
-10.021814758346949
21
30
31
0
0
LINE
5
109
100
AcDbEntity
8
0
100
AcDbLine
10
70.000000223517418
20
30
30
0
11
-10.021814758346949
21
30
31
0
0
CIRCLE
5
110
100
AcDbEntity
8
0
100
AcDbCircle
10
-7.3999997764825851
20
27.400000000000002
30
0
40
1.0999999999999999
210
0
220
-0
230
1
0
SPLINE
5
111
100
AcDbEntity
8
0
100
AcDbSpline
70
0
71
3
72
14
73
10
74
0
42
0.000000001
43
0.0000000001
44
0.0000000001
40
1.4170784384076471
40
1.4170784384076471
40
1.4170784384076471
40
1.4170784384076471
40
1.5279241497390901
40
1.5279241497390901
40
1.6387698610705332
40
1.6387698610705332
40
1.8208807721336973
40
1.8208807721336973
40
2.0029916831968615
40
2.0029916831968615
40
2.0029916831968615
40
2.0029916831968615
10
-4.4316448145974725
20
5
30
0
10
-4.8011305190356159
20
5
30
0
10
-5.2021740561124465
20
5.0483529362890955
30
0
10
-5.9870064623284547
20
5.229407715494653
30
0
10
-6.3710271310048689
20
5.3611032863425407
30
0
10
-7.2727589964915058
20
5.7359032397072296
30
0
10
-7.8557576793691517
20
6.0545273159576576
30
0
10
-8.981445014524061
20
6.7629611269470127
30
0
10
-9.526171637571256
20
7.1495273882510464
30
0
10
-10.021814758346947
20
7.5
30
0
0
LINE
5
112
100
AcDbEntity
8
0
100
AcDbLine
10
70.000000223517418
20
30
30
0
11
70.000000223517418
21
5
31
0
0
CIRCLE
5
113
100
AcDbEntity
8
0
100
AcDbCircle
10
67.400000223517424
20
27.400000000000002
30
0
40
1.0999999999999943
210
0
220
-0
230
1
0
CIRCLE
5
114
100
AcDbEntity
8
0
100
AcDbCircle
10
67.400000223517424
20
10.1
30
0
40
1.1000000000000032
210
0
220
-0
230
1
0
LINE
5
115
100
AcDbEntity
8
0
100
AcDbLine
10
70.000000223517418
20
5
30
0
11
-4.4316448145974725
21
5
31
0
0
CIRCLE
5
116
100
AcDbEntity
8
0
100
AcDbCircle
10
52.100000670552255
20
15.300000015869736
30
0
40
2.7500000000000036
210
0
220
-0
230
1
0
ENDSEC
0
SECTION
2
OBJECTS
0
DICTIONARY
5
C
100
AcDbDictionary
3
ACAD_GROUP
350
D
3
ACAD_MLINESTYLE
350
17
0
DICTIONARY
5
D
100
AcDbDictionary
0
DICTIONARY
5
1A
330
C
100
AcDbDictionary
0
DICTIONARY
5
17
100
AcDbDictionary
0
ENDSEC
0
EOF
